# xmcd CD database file
#
# Track frame offsets:
#	150
#	34283
#	59784
#	85230
#
# Disc length: 1431 seconds
#
# Revision: 0
# Processed by: cddbd v1.5.2PL0 Copyright (c) Steve Scherf et al.
# Submitted via: CDex 1.70beta1
#
DISCID=34059504
DTITLE=Robert Bruce - Classical Nouveau - 4 track Radio EP
DYEAR=2006
DGENRE=New Age
TTITLE0=All Of My Tomorows, feat. Karen Barett-Grignon
TTITLE1=A Little Bit of Neptune, , feat. Karen Barett-Grignon and Corrine Prevost
TTITLE2=Eclipse
TTITLE3=Open Window Blues
EXTD=YEAR: 2006
EXTT0=
EXTT1=
EXTT2=
EXTT3=
PLAYORDER=
